<svg width="236" height="26" viewBox="0 0 236 26" fill="none" xmlns="http://www.w3.org/2000/svg">
<path d="M113.365 18V4.24004H116.105V18H113.365ZM108.885 6.36004V3.94004H120.585V6.36004H108.885Z" fill="white"/>
<path d="M124.321 18.2C123.348 18.2 122.468 17.98 121.681 17.54C120.908 17.0867 120.288 16.48 119.821 15.72C119.368 14.9467 119.141 14.0867 119.141 13.14C119.141 12.1934 119.368 11.3467 119.821 10.6C120.274 9.84004 120.894 9.24004 121.681 8.80004C122.468 8.34671 123.341 8.12004 124.301 8.12004C125.288 8.12004 126.168 8.34671 126.941 8.80004C127.728 9.24004 128.348 9.84004 128.801 10.6C129.254 11.3467 129.481 12.1934 129.481 13.14C129.481 14.0867 129.254 14.9467 128.801 15.72C128.348 16.48 127.728 17.0867 126.941 17.54C126.168 17.98 125.294 18.2 124.321 18.2ZM124.301 15.76C124.794 15.76 125.228 15.6534 125.601 15.44C125.988 15.2134 126.281 14.9067 126.481 14.52C126.694 14.12 126.801 13.6667 126.801 13.16C126.801 12.6534 126.694 12.2067 126.481 11.82C126.268 11.4334 125.974 11.1334 125.601 10.92C125.228 10.6934 124.794 10.58 124.301 10.58C123.821 10.58 123.394 10.6934 123.021 10.92C122.648 11.1334 122.354 11.4334 122.141 11.82C121.928 12.2067 121.821 12.6534 121.821 13.16C121.821 13.6667 121.928 14.12 122.141 14.52C122.354 14.9067 122.648 15.2134 123.021 15.44C123.394 15.6534 123.821 15.76 124.301 15.76Z" fill="white"/>
<path d="M134.928 18V4.24004H137.668V18H134.928ZM130.448 6.36004V3.94004H142.148V6.36004H130.448Z" fill="white"/>
<path d="M150.246 18V12.46C150.246 11.8867 150.066 11.42 149.706 11.06C149.346 10.7 148.879 10.52 148.306 10.52C147.933 10.52 147.599 10.6 147.306 10.76C147.013 10.92 146.779 11.1467 146.606 11.44C146.446 11.7334 146.366 12.0734 146.366 12.46L145.346 11.94C145.346 11.18 145.506 10.52 145.826 9.96004C146.146 9.38671 146.586 8.94004 147.146 8.62004C147.719 8.30004 148.373 8.14004 149.106 8.14004C149.839 8.14004 150.486 8.30004 151.046 8.62004C151.619 8.94004 152.066 9.38004 152.386 9.94004C152.706 10.5 152.866 11.1467 152.866 11.88V18H150.246ZM143.746 18V3.54004H146.366V18H143.746Z" fill="white"/>
<path d="M159.596 18.2C158.583 18.2 157.683 17.9867 156.896 17.56C156.11 17.12 155.483 16.52 155.016 15.76C154.563 15 154.336 14.1334 154.336 13.16C154.336 12.2 154.556 11.3467 154.996 10.6C155.45 9.84004 156.063 9.24004 156.836 8.80004C157.61 8.34671 158.47 8.12004 159.416 8.12004C160.35 8.12004 161.17 8.33337 161.876 8.76004C162.596 9.17337 163.156 9.74671 163.556 10.48C163.97 11.2 164.176 12.02 164.176 12.94C164.176 13.1134 164.163 13.2934 164.136 13.48C164.123 13.6534 164.09 13.8534 164.036 14.08L155.916 14.1V12.14L162.816 12.12L161.756 12.94C161.73 12.3667 161.623 11.8867 161.436 11.5C161.263 11.1134 161.003 10.82 160.656 10.62C160.323 10.4067 159.91 10.3 159.416 10.3C158.896 10.3 158.443 10.42 158.056 10.66C157.67 10.8867 157.37 11.2134 157.156 11.64C156.956 12.0534 156.856 12.5467 156.856 13.12C156.856 13.7067 156.963 14.22 157.176 14.66C157.403 15.0867 157.723 15.42 158.136 15.66C158.55 15.8867 159.03 16 159.576 16C160.07 16 160.516 15.92 160.916 15.76C161.316 15.5867 161.663 15.3334 161.956 15L163.496 16.54C163.03 17.0867 162.456 17.5 161.776 17.78C161.11 18.06 160.383 18.2 159.596 18.2Z" fill="white"/>
<path d="M166.077 18V3.94004H168.797V18H166.077ZM168.077 12.24V9.82004H175.157V12.24H168.077ZM168.077 6.34004V3.94004H175.497V6.34004H168.077Z" fill="white"/>
<path d="M181.479 18.2C180.626 18.2 179.866 18.02 179.199 17.66C178.546 17.3 178.032 16.8 177.659 16.16C177.286 15.52 177.099 14.78 177.099 13.94V8.34004H179.739V13.88C179.739 14.28 179.806 14.6267 179.939 14.92C180.072 15.2 180.272 15.4134 180.539 15.56C180.806 15.7067 181.119 15.78 181.479 15.78C182.026 15.78 182.452 15.6134 182.759 15.28C183.066 14.9467 183.219 14.48 183.219 13.88V8.34004H185.839V13.94C185.839 14.7934 185.652 15.54 185.279 16.18C184.919 16.82 184.406 17.32 183.739 17.68C183.086 18.0267 182.332 18.2 181.479 18.2Z" fill="white"/>
<path d="M189.346 18V4.32004H191.966V18H189.346ZM187.086 10.64V8.34004H194.226V10.64H187.086Z" fill="white"/>
<path d="M199.819 18.2C198.966 18.2 198.206 18.02 197.539 17.66C196.886 17.3 196.372 16.8 195.999 16.16C195.626 15.52 195.439 14.78 195.439 13.94V8.34004H198.079V13.88C198.079 14.28 198.146 14.6267 198.279 14.92C198.412 15.2 198.612 15.4134 198.879 15.56C199.146 15.7067 199.459 15.78 199.819 15.78C200.366 15.78 200.792 15.6134 201.099 15.28C201.406 14.9467 201.559 14.48 201.559 13.88V8.34004H204.179V13.94C204.179 14.7934 203.992 15.54 203.619 16.18C203.259 16.82 202.746 17.32 202.079 17.68C201.426 18.0267 200.672 18.2 199.819 18.2Z" fill="white"/>
<path d="M206.265 18V8.34004H208.885V18H206.265ZM208.885 12.66L207.865 11.98C207.985 10.7934 208.332 9.86004 208.905 9.18004C209.479 8.48671 210.305 8.14004 211.385 8.14004C211.852 8.14004 212.272 8.22004 212.645 8.38004C213.019 8.52671 213.359 8.77337 213.665 9.12004L212.025 11C211.879 10.84 211.699 10.72 211.485 10.64C211.285 10.56 211.052 10.52 210.785 10.52C210.225 10.52 209.765 10.7 209.405 11.06C209.059 11.4067 208.885 11.94 208.885 12.66Z" fill="white"/>
<path d="M215.252 12.14V14.1L216.308 14.0974C216.231 13.7981 216.192 13.4723 216.192 13.12C216.192 12.761 216.232 12.4333 216.31 12.137L215.252 12.14Z" fill="white"/>
<path d="M216.232 17.56C217.019 17.9867 217.919 18.2 218.932 18.2C218.932 18.2 218.733 17.9699 218.5 17.5C217.5 17.5 217.541 16.1433 217.8 15.76C217.387 15.52 216.739 15.0867 216.512 14.66C216.427 14.4842 216.359 14.2967 216.308 14.0974L215.252 14.1V12.14L216.31 12.137C216.357 11.9602 216.418 11.7945 216.492 11.64C216.706 11.2134 217.006 10.8867 217.392 10.66C217.779 10.42 218.232 10.3 218.752 10.3C219.246 10.3 219.659 10.4067 219.992 10.62C220.339 10.82 220.599 11.1134 220.772 11.5C220.862 11.6862 220.933 11.894 220.986 12.1234L222.323 11.64L223.5 12C223.5 11.5 223.306 11.2 222.892 10.48C222.492 9.74671 221.932 9.17337 221.212 8.76004C220.506 8.33337 219.686 8.12004 218.752 8.12004C217.806 8.12004 216.946 8.34671 216.172 8.80004C215.399 9.24004 214.786 9.84004 214.332 10.6C213.892 11.3467 213.672 12.2 213.672 13.16C213.672 14.1334 213.899 15 214.352 15.76C214.819 16.52 215.446 17.12 216.232 17.56Z" fill="white"/>
<path d="M222.323 11.64L220.986 12.1234L216.31 12.137C216.232 12.4333 216.192 12.761 216.192 13.12C216.192 13.4723 216.231 13.7981 216.308 14.0974C216.308 14.0974 217.746 14.0974 218.87 14.0974C219.684 13.9614 220.44 13.0835 220.864 12.66C221.864 11.66 223.5 12 223.5 12L222.323 11.64Z" fill="white"/>
<path d="M21.4199 12.9399V9.61986H22.1799H28.4199V12.9399H22.1799H21.4199ZM21.4199 7.07986V3.75986H28.7199V7.07986H22.1799H21.4199Z" fill="#00A811"/>
<path d="M35.0912 18.2399C33.9445 18.2399 32.9378 18.0265 32.0712 17.5999C31.2045 17.1599 30.5245 16.5532 30.0312 15.7799C29.5512 14.9932 29.3112 14.0932 29.3112 13.0799C29.3112 12.0799 29.5445 11.1932 30.0112 10.4199C30.4912 9.64653 31.1445 9.03986 31.9712 8.59986C32.7978 8.14653 33.7312 7.91986 34.7712 7.91986C35.7978 7.91986 36.7045 8.1332 37.4912 8.55986C38.2778 8.9732 38.8912 9.5532 39.3312 10.2999C39.7845 11.0465 40.0112 11.8999 40.0112 12.8599C40.0112 13.0599 39.9978 13.2732 39.9712 13.4999C39.9578 13.7132 39.9178 13.9665 39.8512 14.2599L30.9712 14.3199V11.9199L38.3912 11.8599L36.5712 12.9199C36.5712 12.3865 36.5045 11.9532 36.3712 11.6199C36.2512 11.2732 36.0645 11.0132 35.8112 10.8399C35.5578 10.6665 35.2378 10.5799 34.8512 10.5799C34.4512 10.5799 34.1045 10.6799 33.8112 10.8799C33.5178 11.0799 33.2912 11.3665 33.1312 11.7399C32.9845 12.1132 32.9112 12.5665 32.9112 13.0999C32.9112 13.6465 32.9912 14.1065 33.1512 14.4799C33.3245 14.8399 33.5712 15.1132 33.8912 15.2999C34.2112 15.4865 34.6112 15.5799 35.0912 15.5799C35.5578 15.5799 35.9645 15.5065 36.3112 15.3599C36.6712 15.1999 36.9978 14.9532 37.2912 14.6199L39.2512 16.5599C38.7578 17.1199 38.1645 17.5399 37.4712 17.8199C36.7778 18.0999 35.9845 18.2399 35.0912 18.2399Z" fill="#00A811"/>
<path d="M46.3021 18.2399C45.1555 18.2399 44.1488 18.0265 43.2821 17.5999C42.4155 17.1599 41.7355 16.5532 41.2421 15.7799C40.7621 14.9932 40.5221 14.0932 40.5221 13.0799C40.5221 12.0799 40.7555 11.1932 41.2221 10.4199C41.7021 9.64653 42.3555 9.03986 43.1821 8.59986C44.0088 8.14653 44.9421 7.91986 45.9821 7.91986C47.0088 7.91986 47.9155 8.1332 48.7021 8.55986C49.4888 8.9732 50.1021 9.5532 50.5421 10.2999C50.9955 11.0465 51.2221 11.8999 51.2221 12.8599C51.2221 13.0599 51.2088 13.2732 51.1821 13.4999C51.1688 13.7132 51.1288 13.9665 51.0621 14.2599L42.1821 14.3199V11.9199L49.6021 11.8599L47.7821 12.9199C47.7821 12.3865 47.7155 11.9532 47.5821 11.6199C47.4621 11.2732 47.2755 11.0132 47.0221 10.8399C46.7688 10.6665 46.4488 10.5799 46.0621 10.5799C45.6621 10.5799 45.3155 10.6799 45.0221 10.8799C44.7288 11.0799 44.5021 11.3665 44.3421 11.7399C44.1955 12.1132 44.1221 12.5665 44.1221 13.0999C44.1221 13.6465 44.2021 14.1065 44.3621 14.4799C44.5355 14.8399 44.7821 15.1132 45.1021 15.2999C45.4221 15.4865 45.8221 15.5799 46.3021 15.5799C46.7688 15.5799 47.1755 15.5065 47.5221 15.3599C47.8821 15.1999 48.2088 14.9532 48.5021 14.6199L50.4621 16.5599C49.9688 17.1199 49.3755 17.5399 48.6821 17.8199C47.9888 18.0999 47.1955 18.2399 46.3021 18.2399Z" fill="#00A811"/>
<path d="M56.6531 18.1999C55.6797 18.1999 54.8264 17.9799 54.0931 17.5399C53.3731 17.0999 52.8064 16.4999 52.3931 15.7399C51.9931 14.9665 51.7931 14.0799 51.7931 13.0799C51.7931 12.0799 51.9931 11.1932 52.3931 10.4199C52.8064 9.64653 53.3731 9.04653 54.0931 8.61986C54.8264 8.17986 55.6797 7.95986 56.6531 7.95986C57.2397 7.95986 57.7931 8.05986 58.3131 8.25986C58.8331 8.44653 59.2731 8.7132 59.6331 9.05986C60.0064 9.40653 60.2397 9.80653 60.3331 10.2599V15.6999C60.2397 16.1532 60.0064 16.5732 59.6331 16.9599C59.2731 17.3332 58.8331 17.6332 58.3131 17.8599C57.7931 18.0865 57.2397 18.1999 56.6531 18.1999ZM57.3731 14.7599C57.7064 14.7599 57.9931 14.6932 58.2331 14.5599C58.4731 14.4132 58.6597 14.2132 58.7931 13.9599C58.9397 13.7065 59.0131 13.4132 59.0131 13.0799C59.0131 12.7465 58.9464 12.4599 58.8131 12.2199C58.6797 11.9665 58.4864 11.7665 58.2331 11.6199C57.9931 11.4732 57.7131 11.3999 57.3931 11.3999C57.0731 11.3999 56.7864 11.4732 56.5331 11.6199C56.2931 11.7665 56.0997 11.9665 55.9531 12.2199C55.8064 12.4732 55.7331 12.7599 55.7331 13.0799C55.7331 13.3999 55.7997 13.6865 55.9331 13.9399C56.0797 14.1932 56.2797 14.3932 56.5331 14.5399C56.7864 14.6865 57.0664 14.7599 57.3731 14.7599ZM62.7131 17.9999H58.8931V15.3599L59.4331 12.9599L58.7931 10.5799V3.35986H62.7131V17.9999Z" fill="#00A811"/>
<path d="M67.1001 17.9999V15.7799H70.7601C71.4134 15.7799 71.9201 15.5799 72.2801 15.1799C72.6534 14.7799 72.8401 14.3065 72.8401 13.7599C72.8401 13.3865 72.7601 13.0465 72.6001 12.7399C72.4401 12.4332 72.2001 12.1932 71.8801 12.0199C71.5734 11.8332 71.2001 11.7399 70.7601 11.7399H67.1001V9.53986H70.4601C71.0201 9.53986 71.4668 9.39986 71.8001 9.11986C72.1468 8.83986 72.3201 8.41986 72.3201 7.85986C72.3201 7.28653 72.1468 6.85986 71.8001 6.57986C71.4668 6.29986 71.0201 6.15986 70.4601 6.15986H67.1001V3.93986H70.7801C71.7134 3.93986 72.4934 4.1132 73.1201 4.45986C73.7601 4.7932 74.2401 5.23986 74.5601 5.79986C74.8801 6.34653 75.0401 6.94653 75.0401 7.59986C75.0401 8.39986 74.7934 9.0932 74.3001 9.67986C73.8201 10.2532 73.1134 10.6799 72.1801 10.9599L72.3001 10.0799C73.3401 10.3732 74.1401 10.8599 74.7001 11.5399C75.2734 12.2065 75.5601 13.0132 75.5601 13.9599C75.5601 14.7065 75.3734 15.3865 75.0001 15.9999C74.6401 16.5999 74.1068 17.0865 73.4001 17.4599C72.7068 17.8199 71.8601 17.9999 70.8601 17.9999H67.1001ZM65.1001 17.9999V3.93986H67.8001V17.9999H65.1001Z" fill="#00A811"/>
<path d="M81.4773 18.1999C80.5973 18.1999 79.8039 17.9799 79.0973 17.5399C78.3906 17.0999 77.8373 16.4999 77.4373 15.7399C77.0373 14.9799 76.8373 14.1265 76.8373 13.1799C76.8373 12.2199 77.0373 11.3599 77.4373 10.5999C77.8373 9.83986 78.3906 9.23986 79.0973 8.79986C79.8039 8.35986 80.5973 8.13986 81.4773 8.13986C82.1706 8.13986 82.7906 8.27986 83.3373 8.55986C83.8839 8.83986 84.3173 9.2332 84.6373 9.73986C84.9706 10.2332 85.1506 10.7932 85.1773 11.4199V14.8999C85.1506 15.5399 84.9706 16.1065 84.6373 16.5999C84.3173 17.0932 83.8839 17.4865 83.3373 17.7799C82.7906 18.0599 82.1706 18.1999 81.4773 18.1999ZM81.9573 15.7799C82.6906 15.7799 83.2839 15.5399 83.7373 15.0599C84.1906 14.5665 84.4173 13.9332 84.4173 13.1599C84.4173 12.6532 84.3106 12.2065 84.0973 11.8199C83.8973 11.4199 83.6106 11.1132 83.2373 10.8999C82.8773 10.6732 82.4506 10.5599 81.9573 10.5599C81.4773 10.5599 81.0506 10.6732 80.6773 10.8999C80.3173 11.1132 80.0306 11.4199 79.8173 11.8199C79.6173 12.2065 79.5173 12.6532 79.5173 13.1599C79.5173 13.6799 79.6173 14.1399 79.8173 14.5399C80.0306 14.9265 80.3173 15.2332 80.6773 15.4599C81.0506 15.6732 81.4773 15.7799 81.9573 15.7799ZM84.2773 17.9999V15.3999L84.6973 13.0399L84.2773 10.7199V8.33986H86.8773V17.9999H84.2773Z" fill="#00A811"/>
<path d="M93.7551 18.1999C92.7684 18.1999 91.8818 17.9799 91.0951 17.5399C90.3084 17.0999 89.6884 16.4999 89.2351 15.7399C88.7818 14.9799 88.5551 14.1265 88.5551 13.1799C88.5551 12.2199 88.7818 11.3599 89.2351 10.5999C89.6884 9.83986 90.3084 9.23986 91.0951 8.79986C91.8951 8.34653 92.7818 8.11986 93.7551 8.11986C94.5151 8.11986 95.2151 8.25986 95.8551 8.53986C96.4951 8.81986 97.0484 9.21986 97.5151 9.73986L95.8351 11.4399C95.5818 11.1599 95.2751 10.9465 94.9151 10.7999C94.5684 10.6532 94.1818 10.5799 93.7551 10.5799C93.2751 10.5799 92.8418 10.6932 92.4551 10.9199C92.0817 11.1332 91.7818 11.4332 91.5551 11.8199C91.3418 12.1932 91.2351 12.6399 91.2351 13.1599C91.2351 13.6665 91.3418 14.1199 91.5551 14.5199C91.7818 14.9065 92.0817 15.2132 92.4551 15.4399C92.8418 15.6532 93.2751 15.7599 93.7551 15.7599C94.1951 15.7599 94.5884 15.6865 94.9351 15.5399C95.2951 15.3799 95.6018 15.1532 95.8551 14.8599L97.5551 16.5599C97.0618 17.0932 96.4951 17.4999 95.8551 17.7799C95.2151 18.0599 94.5151 18.1999 93.7551 18.1999Z" fill="#00A811"/>
<path d="M105.199 17.9999L101.459 13.0199L105.179 8.33986H108.199L103.839 13.6199L103.939 12.3399L108.399 17.9999H105.199ZM99.0388 17.9999V3.53986H101.659V17.9999H99.0388Z" fill="#00A811"/>
<path d="M21.4199 3.75986H18.1799V6.73707C18.1799 6.73707 21 7.73314 21 12.5C21 17.2669 18.1799 17.9999 18.1799 17.9999H22.1799V12.9399H21.4199V9.61986H22.1799V7.07986H21.4199V3.75986Z" fill="#00A811"/>
<g clip-path="url(#clip0_1_17)">
<path d="M231.691 18.7213C234.286 15.8053 235.379 13.4518 235.787 11.726C236.023 10.7281 236.028 9.94851 235.967 9.40288C235.944 9.18885 235.903 8.97704 235.846 8.76951C235.821 8.68172 235.792 8.59534 235.758 8.51076C235.676 8.32626 235.569 8.24638 235.362 8.17776C235.303 8.15876 235.243 8.14188 235.182 8.12713C234.971 8.07603 234.757 8.04105 234.541 8.02251C233.989 7.97301 233.202 7.98876 232.201 8.23401C230.473 8.65476 228.13 9.74488 225.27 12.2885L222.57 12.5563H222.563C221.914 12.6286 221.309 12.9198 220.848 13.382L218.169 16.0663C218.084 16.1517 218.028 16.2617 218.009 16.3806C217.99 16.4995 218.008 16.6214 218.062 16.7292C218.116 16.837 218.202 16.9252 218.308 16.9815C218.415 17.0377 218.536 17.0592 218.656 17.0428L220.789 16.7379C221.104 16.6929 221.455 16.7525 221.863 16.8864C222.124 16.9719 222.355 17.0664 222.6 17.1654L222.828 17.2588C223.049 18.1768 223.571 19.0363 224.263 19.7281C224.952 20.4189 225.811 20.9431 226.728 21.1648L226.82 21.392C226.92 21.6373 227.014 21.869 227.1 22.1311C227.233 22.5395 227.293 22.8916 227.248 23.2066L226.944 25.3441C226.928 25.4632 226.949 25.5844 227.005 25.6906C227.062 25.7969 227.15 25.8829 227.257 25.9366C227.365 25.9903 227.486 26.009 227.605 25.9901C227.724 25.9712 227.833 25.9157 227.919 25.8313L230.599 23.147C231.06 22.6858 231.35 22.0794 231.422 21.4303L231.691 18.7213ZM231.815 14.5599C230.918 15.4599 229.644 15.641 228.971 14.9671C228.298 14.2921 228.48 13.0175 229.377 12.1186C230.275 11.2198 231.548 11.0386 232.221 11.7125C232.895 12.3864 232.713 13.661 231.816 14.5599H231.815Z" fill="#00A811"/>
<path d="M223.856 20.1354C224.453 20.74 225.137 21.2526 225.885 21.6564C224.627 22.7892 220.34 23.9379 220.199 23.7972C220.058 23.6544 221.028 19.0846 222.268 17.9697C222.657 18.746 223.21 19.4885 223.856 20.1354Z" fill="#00A811"/>
</g>
<path d="M9 18C12.7282 18 15.75 15.75 15.75 11.8125C15.75 10.125 15.1875 7.3125 12.9375 5.0625C13.2188 6.75 11.5312 7.3125 11.5312 7.3125C12.375 4.5 10.125 0.5625 6.75 0C7.15163 2.25 7.3125 4.5 4.5 6.75C3.09375 7.875 2.25 9.82012 2.25 11.8125C2.25 15.75 5.27175 18 9 18ZM9 16.875C7.13588 16.875 5.625 15.75 5.625 13.7812C5.625 12.9375 5.90625 11.5312 7.03125 10.4062C6.89062 11.25 7.875 11.8125 7.875 11.8125C7.45312 10.4062 8.4375 8.15625 10.125 7.875C9.92362 9 9.84375 10.125 11.25 11.25C11.9531 11.8125 12.375 12.7845 12.375 13.7812C12.375 15.75 10.8641 16.875 9 16.875Z" fill="white"/>
<g clip-path="url(#clip1_1_17)">
<path d="M19.8783 14.3802C19.091 17.7905 15.229 18.7457 12 18.0002C12 18.0002 17 16.5001 16.5 11.5001C16 6.50012 13.8906 5.29969 13.8906 5.18192C13.8906 5.18192 14.3963 3.32516 14.4453 2.34973C17.2559 3.51177 18.4174 7.37197 17.1242 9.63918C17.1242 9.63918 18.6982 9.48942 18.7921 7.97163C20.2909 10.3703 20.2157 12.9187 19.8783 14.3802Z" fill="white"/>
</g>
<defs>
<clipPath id="clip0_1_17">
<rect width="18" height="18" fill="white" transform="translate(218 8)"/>
</clipPath>
<clipPath id="clip1_1_17">
<rect width="16" height="16" fill="white" transform="translate(8.59912 1) rotate(13)"/>
</clipPath>
</defs>
</svg>
