<svg width="18" height="19" viewBox="0 0 18 19" fill="none" xmlns="http://www.w3.org/2000/svg">
<g clip-path="url(#clip0_9_68)">
<path d="M9.5625 7.25C9.5625 7.10082 9.50324 6.95774 9.39775 6.85225C9.29226 6.74676 9.14918 6.6875 9 6.6875C8.85082 6.6875 8.70774 6.74676 8.60225 6.85225C8.49676 6.95774 8.4375 7.10082 8.4375 7.25V8.9375H6.75C6.60082 8.9375 6.45774 8.99676 6.35225 9.10225C6.24676 9.20774 6.1875 9.35082 6.1875 9.5C6.1875 9.64918 6.24676 9.79226 6.35225 9.89775C6.45774 10.0032 6.60082 10.0625 6.75 10.0625H8.4375V11.75C8.4375 11.8992 8.49676 12.0423 8.60225 12.1477C8.70774 12.2532 8.85082 12.3125 9 12.3125C9.14918 12.3125 9.29226 12.2532 9.39775 12.1477C9.50324 12.0423 9.5625 11.8992 9.5625 11.75V10.0625H11.25C11.3992 10.0625 11.5423 10.0032 11.6477 9.89775C11.7532 9.79226 11.8125 9.64918 11.8125 9.5C11.8125 9.35082 11.7532 9.20774 11.6477 9.10225C11.5423 8.99676 11.3992 8.9375 11.25 8.9375H9.5625V7.25Z" fill="white"/>
<path d="M2.25 2.75C2.25 2.15326 2.48705 1.58097 2.90901 1.15901C3.33097 0.737053 3.90326 0.5 4.5 0.5L13.5 0.5C14.0967 0.5 14.669 0.737053 15.091 1.15901C15.5129 1.58097 15.75 2.15326 15.75 2.75V16.25C15.75 16.8467 15.5129 17.419 15.091 17.841C14.669 18.2629 14.0967 18.5 13.5 18.5H4.5C3.90326 18.5 3.33097 18.2629 2.90901 17.841C2.48705 17.419 2.25 16.8467 2.25 16.25V2.75ZM13.5 1.625H4.5C4.20163 1.625 3.91548 1.74353 3.7045 1.9545C3.49353 2.16548 3.375 2.45163 3.375 2.75V16.25C3.375 16.5484 3.49353 16.8345 3.7045 17.0455C3.91548 17.2565 4.20163 17.375 4.5 17.375H13.5C13.7984 17.375 14.0845 17.2565 14.2955 17.0455C14.5065 16.8345 14.625 16.5484 14.625 16.25V2.75C14.625 2.45163 14.5065 2.16548 14.2955 1.9545C14.0845 1.74353 13.7984 1.625 13.5 1.625Z" fill="white"/>
</g>
<defs>
<clipPath id="clip0_9_68">
<rect width="18" height="18" fill="white" transform="translate(0 0.5)"/>
</clipPath>
</defs>
</svg>
