<svg width="22" height="22" viewBox="0 0 22 22" fill="none" xmlns="http://www.w3.org/2000/svg">
<g clip-path="url(#clip0_1_40)">
<path fill-rule="evenodd" clip-rule="evenodd" d="M6.875 2.75C6.875 2.56766 6.94743 2.3928 7.07636 2.26386C7.2053 2.13493 7.38016 2.0625 7.5625 2.0625C8.74775 2.0625 9.72537 2.45712 10.395 2.84075C10.6342 2.97688 10.8364 3.113 11 3.234C11.1636 3.113 11.3657 2.97688 11.605 2.84075C12.4654 2.33948 13.4417 2.07124 14.4375 2.0625C14.6198 2.0625 14.7947 2.13493 14.9236 2.26386C15.0526 2.3928 15.125 2.56766 15.125 2.75C15.125 2.93234 15.0526 3.1072 14.9236 3.23614C14.7947 3.36507 14.6198 3.4375 14.4375 3.4375C13.5602 3.4375 12.8191 3.73038 12.287 4.03425C12.0773 4.15373 11.8769 4.28887 11.6875 4.4385V10.3125H12.375C12.5573 10.3125 12.7322 10.3849 12.8611 10.5139C12.9901 10.6428 13.0625 10.8177 13.0625 11C13.0625 11.1823 12.9901 11.3572 12.8611 11.4861C12.7322 11.6151 12.5573 11.6875 12.375 11.6875H11.6875V17.5615C11.825 17.6715 12.0285 17.8186 12.287 17.9657C12.8191 18.2696 13.5602 18.5625 14.4375 18.5625C14.6198 18.5625 14.7947 18.6349 14.9236 18.7639C15.0526 18.8928 15.125 19.0677 15.125 19.25C15.125 19.4323 15.0526 19.6072 14.9236 19.7361C14.7947 19.8651 14.6198 19.9375 14.4375 19.9375C13.4417 19.9288 12.4654 19.6605 11.605 19.1593C11.396 19.0408 11.194 18.9104 11 18.7687C10.806 18.9109 10.604 19.0417 10.395 19.1606C9.53455 19.6619 8.55827 19.9301 7.5625 19.9389C7.38016 19.9389 7.2053 19.8664 7.07636 19.7375C6.94743 19.6086 6.875 19.4337 6.875 19.2514C6.875 19.069 6.94743 18.8942 7.07636 18.7652C7.2053 18.6363 7.38016 18.5639 7.5625 18.5639C8.43975 18.5639 9.18088 18.271 9.713 17.9671C9.9715 17.82 10.1736 17.6729 10.3125 17.5629V11.6875H9.625C9.44266 11.6875 9.2678 11.6151 9.13886 11.4861C9.00993 11.3572 8.9375 11.1823 8.9375 11C8.9375 10.8177 9.00993 10.6428 9.13886 10.5139C9.2678 10.3849 9.44266 10.3125 9.625 10.3125H10.3125V4.4385C10.1231 4.28887 9.92272 4.15373 9.713 4.03425C9.0602 3.65184 8.31901 3.44617 7.5625 3.4375C7.38016 3.4375 7.2053 3.36507 7.07636 3.23614C6.94743 3.1072 6.875 2.93234 6.875 2.75Z" fill="white"/>
<path d="M13.75 6.875H19.25C19.6147 6.875 19.9644 7.01987 20.2223 7.27773C20.4801 7.53559 20.625 7.88533 20.625 8.25V13.75C20.625 14.1147 20.4801 14.4644 20.2223 14.7223C19.9644 14.9801 19.6147 15.125 19.25 15.125H13.75V16.5H19.25C19.9793 16.5 20.6788 16.2103 21.1945 15.6945C21.7103 15.1788 22 14.4793 22 13.75V8.25C22 7.52065 21.7103 6.82118 21.1945 6.30546C20.6788 5.78973 19.9793 5.5 19.25 5.5H13.75V6.875ZM8.25 6.875V5.5H2.75C2.02065 5.5 1.32118 5.78973 0.805456 6.30546C0.289731 6.82118 0 7.52065 0 8.25L0 13.75C0 14.4793 0.289731 15.1788 0.805456 15.6945C1.32118 16.2103 2.02065 16.5 2.75 16.5H8.25V15.125H2.75C2.38533 15.125 2.03559 14.9801 1.77773 14.7223C1.51987 14.4644 1.375 14.1147 1.375 13.75V8.25C1.375 7.88533 1.51987 7.53559 1.77773 7.27773C2.03559 7.01987 2.38533 6.875 2.75 6.875H8.25Z" fill="white"/>
</g>
<defs>
<clipPath id="clip0_1_40">
<rect width="22" height="22" fill="white"/>
</clipPath>
</defs>
</svg>
