<svg width="22" height="22" viewBox="0 0 22 22" fill="none" xmlns="http://www.w3.org/2000/svg">
<g clip-path="url(#clip0_1_43)">
<path d="M15.4702 0.093497C15.6047 0.171512 15.7089 0.292858 15.7656 0.437711C15.8223 0.582564 15.8281 0.742361 15.7823 0.890997L13.3059 8.9375H17.875C18.0093 8.93744 18.1407 8.97671 18.2529 9.05045C18.3651 9.1242 18.4532 9.22919 18.5065 9.35246C18.5597 9.47574 18.5757 9.6119 18.5524 9.74414C18.5291 9.87639 18.4676 9.99892 18.3755 10.0966L7.37553 21.7841C7.2691 21.8973 7.12746 21.9711 6.97372 21.9935C6.81997 22.0158 6.66318 21.9855 6.5289 21.9073C6.39462 21.8292 6.29077 21.7079 6.23427 21.5631C6.17777 21.4184 6.17196 21.2588 6.21778 21.1104L8.69416 13.0625H4.12503C3.99075 13.0626 3.8594 13.0233 3.74719 12.9495C3.63497 12.8758 3.54681 12.7708 3.49358 12.6475C3.44035 12.5243 3.42439 12.3881 3.44766 12.2558C3.47093 12.1236 3.53242 12.0011 3.62453 11.9034L14.6245 0.215872C14.7308 0.102846 14.8722 0.0291039 15.0258 0.0066363C15.1793 -0.0158313 15.3359 0.0142969 15.4702 0.092122V0.093497Z" fill="white"/>
</g>
<defs>
<clipPath id="clip0_1_43">
<rect width="22" height="22" fill="white"/>
</clipPath>
</defs>
</svg>
