<svg width="16" height="16" viewBox="0 0 16 16" fill="none" xmlns="http://www.w3.org/2000/svg">
<path d="M11 5C11 5.79565 10.6839 6.55871 10.1213 7.12132C9.55871 7.68393 8.79565 8 8 8C7.20435 8 6.44129 7.68393 5.87868 7.12132C5.31607 6.55871 5 5.79565 5 5C5 4.20435 5.31607 3.44129 5.87868 2.87868C6.44129 2.31607 7.20435 2 8 2C8.79565 2 9.55871 2.31607 10.1213 2.87868C10.6839 3.44129 11 4.20435 11 5ZM8 7C8.53043 7 9.03914 6.78929 9.41421 6.41421C9.78929 6.03914 10 5.53043 10 5C10 4.46957 9.78929 3.96086 9.41421 3.58579C9.03914 3.21071 8.53043 3 8 3C7.46957 3 6.96086 3.21071 6.58579 3.58579C6.21071 3.96086 6 4.46957 6 5C6 5.53043 6.21071 6.03914 6.58579 6.41421C6.96086 6.78929 7.46957 7 8 7ZM8.256 14C8.14128 13.6753 8.06444 13.3384 8.027 12.996H3C3.001 12.75 3.154 12.01 3.832 11.332C4.484 10.68 5.711 10 8 10C8.26 10 8.507 10.009 8.74 10.025C8.966 9.684 9.236 9.375 9.544 9.107C9.077 9.038 8.564 9 8 9C3 9 2 12 2 13C2 14 3 14 3 14H8.256ZM11.886 9.46C12.066 8.847 12.934 8.847 13.115 9.46L13.158 9.608C13.1849 9.6998 13.232 9.78442 13.2958 9.85563C13.3597 9.92684 13.4387 9.98282 13.5271 10.0195C13.6154 10.0561 13.7109 10.0725 13.8064 10.0674C13.9019 10.0623 13.9951 10.0358 14.079 9.99L14.215 9.916C14.776 9.61 15.39 10.224 15.085 10.785L15.01 10.921C14.9643 11.0049 14.938 11.098 14.933 11.1934C14.928 11.2888 14.9445 11.3841 14.9811 11.4723C15.0177 11.5605 15.0736 11.6394 15.1448 11.7032C15.2159 11.767 15.3003 11.8141 15.392 11.841L15.541 11.886C16.153 12.066 16.153 12.934 15.541 13.115L15.391 13.158C15.2994 13.1851 15.215 13.2323 15.144 13.2963C15.073 13.3603 15.0172 13.4393 14.9808 13.5276C14.9444 13.616 14.9282 13.7113 14.9334 13.8067C14.9386 13.9022 14.9651 13.9952 15.011 14.079L15.085 14.215C15.39 14.776 14.776 15.39 14.215 15.085L14.079 15.01C13.9951 14.9643 13.902 14.938 13.8066 14.933C13.7112 14.928 13.6159 14.9445 13.5277 14.9811C13.4395 15.0177 13.3606 15.0736 13.2968 15.1448C13.233 15.2159 13.1859 15.3003 13.159 15.392L13.114 15.541C12.934 16.153 12.066 16.153 11.885 15.541L11.842 15.391C11.8149 15.2994 11.7677 15.215 11.7037 15.144C11.6397 15.073 11.5607 15.0172 11.4724 14.9808C11.384 14.9444 11.2887 14.9282 11.1933 14.9334C11.0978 14.9386 11.0048 14.9651 10.921 15.011L10.785 15.085C10.224 15.39 9.61 14.776 9.915 14.215L9.99 14.079C10.0357 13.9951 10.062 13.902 10.067 13.8066C10.072 13.7112 10.0555 13.6159 10.0189 13.5277C9.98227 13.4395 9.92635 13.3606 9.85525 13.2968C9.78415 13.233 9.69966 13.1859 9.608 13.159L9.46 13.114C8.847 12.934 8.847 12.066 9.46 11.885L9.608 11.842C9.6998 11.8151 9.78442 11.768 9.85563 11.7042C9.92684 11.6403 9.98282 11.5613 10.0195 11.4729C10.0561 11.3846 10.0725 11.2891 10.0674 11.1936C10.0623 11.0981 10.0358 11.0049 9.99 10.921L9.916 10.785C9.61 10.224 10.224 9.61 10.785 9.915L10.921 9.99C11.0049 10.0357 11.098 10.062 11.1934 10.067C11.2888 10.072 11.3841 10.0555 11.4723 10.0189C11.5605 9.98227 11.6394 9.92635 11.7032 9.85525C11.767 9.78415 11.8141 9.69966 11.841 9.608L11.886 9.46ZM14 12.5C14 12.303 13.9612 12.108 13.8858 11.926C13.8104 11.744 13.6999 11.5786 13.5607 11.4393C13.4214 11.3001 13.256 11.1896 13.074 11.1142C12.892 11.0388 12.697 11 12.5 11C12.303 11 12.108 11.0388 11.926 11.1142C11.744 11.1896 11.5786 11.3001 11.4393 11.4393C11.3001 11.5786 11.1896 11.744 11.1142 11.926C11.0388 12.108 11 12.303 11 12.5C11 12.8978 11.158 13.2794 11.4393 13.5607C11.7206 13.842 12.1022 14 12.5 14C12.8978 14 13.2794 13.842 13.5607 13.5607C13.842 13.2794 14 12.8978 14 12.5Z" fill="white"/>
</svg>
