<svg width="16" height="16" viewBox="0 0 16 16" fill="none" xmlns="http://www.w3.org/2000/svg">
<g clip-path="url(#clip0_66_7)">
<path d="M15.9639 0.686001C16.0003 0.595137 16.0092 0.495596 15.9895 0.39972C15.9699 0.303844 15.9225 0.215848 15.8533 0.146641C15.7841 0.0774349 15.6961 0.0300614 15.6002 0.0103939C15.5043 -0.00927355 15.4048 -0.000370044 15.3139 0.0360006L0.766942 5.855C0.638832 5.90628 0.527352 5.99191 0.444773 6.10247C0.362194 6.21302 0.311718 6.34422 0.298898 6.48162C0.286079 6.61901 0.311414 6.75728 0.372115 6.88121C0.432816 7.00513 0.526529 7.10991 0.642942 7.184L5.63794 10.362L7.16894 12.768C7.24125 12.8772 7.3535 12.9536 7.48157 12.9809C7.60964 13.0082 7.74331 12.9842 7.85385 12.914C7.96439 12.8438 8.04298 12.733 8.07273 12.6055C8.10247 12.478 8.08101 12.3439 8.01294 12.232L6.63694 10.07L14.1309 2.576L12.2359 7.314C12.2099 7.37523 12.1964 7.44104 12.1961 7.50758C12.1958 7.57411 12.2088 7.64003 12.2343 7.70148C12.2599 7.76292 12.2974 7.81865 12.3447 7.8654C12.3921 7.91216 12.4483 7.94899 12.51 7.97375C12.5718 7.9985 12.6379 8.01068 12.7044 8.00958C12.7709 8.00847 12.8366 7.9941 12.8975 7.9673C12.9584 7.9405 13.0133 7.90181 13.0591 7.85351C13.1048 7.80521 13.1405 7.74826 13.1639 7.686L15.9639 0.686001ZM13.4239 1.869L5.92994 9.363L1.59094 6.602L13.4239 1.869Z" fill="white"/>
<path d="M16 12.5C16 13.4283 15.6313 14.3185 14.9749 14.9749C14.3185 15.6313 13.4283 16 12.5 16C11.5717 16 10.6815 15.6313 10.0251 14.9749C9.36875 14.3185 9 13.4283 9 12.5C9 11.5717 9.36875 10.6815 10.0251 10.0251C10.6815 9.36875 11.5717 9 12.5 9C13.4283 9 14.3185 9.36875 14.9749 10.0251C15.6313 10.6815 16 11.5717 16 12.5ZM14.007 10.821C13.9507 10.7872 13.8882 10.7649 13.8233 10.7553C13.7583 10.7457 13.6921 10.7489 13.6284 10.7649C13.5647 10.7809 13.5047 10.8092 13.452 10.8484C13.3993 10.8875 13.3547 10.9367 13.321 10.993L12.151 12.943L11.604 12.396C11.5101 12.3021 11.3828 12.2494 11.25 12.2494C11.1172 12.2494 10.9899 12.3021 10.896 12.396C10.8021 12.4899 10.7494 12.6172 10.7494 12.75C10.7494 12.8828 10.8021 13.0101 10.896 13.104L11.67 13.877C11.7506 13.9577 11.8485 14.019 11.9563 14.0562C12.0641 14.0934 12.179 14.1055 12.2922 14.0916C12.4053 14.0777 12.5139 14.0382 12.6095 13.9761C12.7051 13.9139 12.7853 13.8308 12.844 13.733L14.179 11.507C14.2128 11.4507 14.2351 11.3882 14.2447 11.3233C14.2543 11.2583 14.2511 11.1921 14.2351 11.1284C14.2191 11.0647 14.1908 11.0047 14.1516 10.952C14.1125 10.8993 14.0633 10.8547 14.007 10.821Z" fill="white"/>
</g>
<defs>
<clipPath id="clip0_66_7">
<rect width="16" height="16" fill="white"/>
</clipPath>
</defs>
</svg>
