<svg width="14" height="14" viewBox="0 0 14 14" fill="none" xmlns="http://www.w3.org/2000/svg">
<g clip-path="url(#clip0_1_63)">
<path d="M7.4375 4.90002C7.4375 4.78399 7.39141 4.67271 7.30936 4.59067C7.22731 4.50862 7.11603 4.46252 7 4.46252C6.88397 4.46252 6.77269 4.50862 6.69064 4.59067C6.60859 4.67271 6.5625 4.78399 6.5625 4.90002V7.43752H3.9375C3.82147 7.43752 3.71019 7.48362 3.62814 7.56566C3.54609 7.64771 3.5 7.75899 3.5 7.87502C3.5 7.99106 3.54609 8.10234 3.62814 8.18438C3.71019 8.26643 3.82147 8.31252 3.9375 8.31252H7C7.11603 8.31252 7.22731 8.26643 7.30936 8.18438C7.39141 8.10234 7.4375 7.99106 7.4375 7.87502V4.90002Z" fill="white"/>
<path d="M5.68752 0.875C5.68752 0.758968 5.73362 0.647688 5.81566 0.565641C5.89771 0.483594 6.00899 0.4375 6.12502 0.4375H7.87502C7.99105 0.4375 8.10233 0.483594 8.18438 0.565641C8.26643 0.647688 8.31252 0.758968 8.31252 0.875C8.31252 0.991032 8.26643 1.10231 8.18438 1.18436C8.10233 1.26641 7.99105 1.3125 7.87502 1.3125V1.81125C9.06502 1.98275 10.1448 2.49375 11.011 3.24625C11.0145 3.24242 11.018 3.23862 11.0215 3.23488L11.3313 2.92513L11.0215 2.61625C10.9394 2.53422 10.8932 2.42291 10.8931 2.30681C10.893 2.19071 10.939 2.07934 11.0211 1.99719C11.1031 1.91504 11.2144 1.86884 11.3305 1.86876C11.4466 1.86867 11.558 1.91472 11.6401 1.99675L12.8774 3.23488C12.9192 3.27523 12.9525 3.32351 12.9754 3.37689C12.9984 3.43026 13.0104 3.48767 13.0109 3.54576C13.0114 3.60385 13.0004 3.66146 12.9784 3.71523C12.9564 3.769 12.9239 3.81784 12.8828 3.85892C12.8417 3.9 12.7929 3.93249 12.7391 3.95448C12.6854 3.97648 12.6277 3.98755 12.5697 3.98705C12.5116 3.98654 12.4542 3.97447 12.4008 3.95154C12.3474 3.92862 12.2991 3.89529 12.2588 3.8535L11.9499 3.54375L11.6401 3.8535C11.6364 3.85707 11.6326 3.86057 11.6288 3.864C12.5197 4.89243 13.0428 6.18824 13.1155 7.54696C13.1883 8.90567 12.8065 10.2499 12.0305 11.3676C11.2545 12.4853 10.1284 13.3127 8.82996 13.7194C7.5315 14.1261 6.13459 14.0889 4.85965 13.6135C3.58471 13.1382 2.50434 12.2519 1.78901 11.0945C1.07368 9.93701 0.764122 8.57432 0.909184 7.22142C1.05424 5.86851 1.64567 4.60243 2.59012 3.62294C3.53458 2.64346 4.7783 2.00634 6.12502 1.81213V1.3125C6.00899 1.3125 5.89771 1.26641 5.81566 1.18436C5.73362 1.10231 5.68752 0.991032 5.68752 0.875ZM7.00002 2.625C6.31058 2.62506 5.6279 2.76091 4.99097 3.0248C4.35403 3.28869 3.77531 3.67545 3.28784 4.163C2.30336 5.14765 1.75034 6.48305 1.75046 7.87544C1.75058 9.26782 2.30381 10.6031 3.28846 11.5876C4.27311 12.5721 5.60851 13.1251 7.0009 13.125C8.39328 13.1249 9.7286 12.5716 10.7131 11.587C11.6976 10.6024 12.2506 9.26695 12.2505 7.87456C12.2503 6.48218 11.6971 5.14686 10.7125 4.16238C9.72781 3.1779 8.39241 2.62488 7.00002 2.625Z" fill="white"/>
</g>
<defs>
<clipPath id="clip0_1_63">
<rect width="14" height="14" fill="white"/>
</clipPath>
</defs>
</svg>
