<svg width="18" height="19" viewBox="0 0 18 19" fill="none" xmlns="http://www.w3.org/2000/svg">
<g clip-path="url(#clip0_1_48)">
<path d="M7.875 3.3125C7.875 3.16332 7.93426 3.02024 8.03975 2.91475C8.14524 2.80926 8.28832 2.75 8.4375 2.75H16.3125C16.4617 2.75 16.6048 2.80926 16.7102 2.91475C16.8157 3.02024 16.875 3.16332 16.875 3.3125V4.4375C16.875 4.58668 16.8157 4.72976 16.7102 4.83525C16.6048 4.94074 16.4617 5 16.3125 5H8.4375C8.28832 5 8.14524 4.94074 8.03975 4.83525C7.93426 4.72976 7.875 4.58668 7.875 4.4375V3.3125ZM2.25 1.625C1.65326 1.625 1.08097 1.86205 0.65901 2.28401C0.237053 2.70597 0 3.27826 0 3.875L0 6.125C0 6.72174 0.237053 7.29403 0.65901 7.71599C1.08097 8.13795 1.65326 8.375 2.25 8.375H4.5C5.09674 8.375 5.66903 8.13795 6.09099 7.71599C6.51295 7.29403 6.75 6.72174 6.75 6.125V3.875C6.75 3.27826 6.51295 2.70597 6.09099 2.28401C5.66903 1.86205 5.09674 1.625 4.5 1.625H2.25ZM2.25 10.625C1.65326 10.625 1.08097 10.8621 0.65901 11.284C0.237053 11.706 0 12.2783 0 12.875L0 15.125C0 15.7217 0.237053 16.294 0.65901 16.716C1.08097 17.1379 1.65326 17.375 2.25 17.375H4.5C5.09674 17.375 5.66903 17.1379 6.09099 16.716C6.51295 16.294 6.75 15.7217 6.75 15.125V12.875C6.75 12.2783 6.51295 11.706 6.09099 11.284C5.66903 10.8621 5.09674 10.625 4.5 10.625H2.25ZM3.21075 6.52325C3.1585 6.57563 3.09643 6.61719 3.02809 6.64555C2.95975 6.67391 2.88649 6.68851 2.8125 6.68851C2.73851 6.68851 2.66525 6.67391 2.59691 6.64555C2.52857 6.61719 2.4665 6.57563 2.41425 6.52325L1.28925 5.39825C1.23695 5.34595 1.19547 5.28386 1.16716 5.21553C1.13886 5.1472 1.12429 5.07396 1.12429 5C1.12429 4.92604 1.13886 4.8528 1.16716 4.78447C1.19547 4.71614 1.23695 4.65405 1.28925 4.60175C1.34155 4.54945 1.40364 4.50797 1.47197 4.47966C1.5403 4.45136 1.61354 4.43679 1.6875 4.43679C1.76146 4.43679 1.8347 4.45136 1.90303 4.47966C1.97136 4.50797 2.03345 4.54945 2.08575 4.60175L2.8125 5.32963L4.66425 3.47675C4.71655 3.42445 4.77864 3.38297 4.84697 3.35466C4.9153 3.32636 4.98854 3.31179 5.0625 3.31179C5.13646 3.31179 5.2097 3.32636 5.27803 3.35466C5.34636 3.38297 5.40845 3.42445 5.46075 3.47675C5.51305 3.52905 5.55453 3.59114 5.58284 3.65947C5.61114 3.7278 5.62571 3.80104 5.62571 3.875C5.62571 3.94896 5.61114 4.0222 5.58284 4.09053C5.55453 4.15886 5.51305 4.22095 5.46075 4.27325L3.21075 6.52325ZM3.21075 15.5233C3.1585 15.5756 3.09643 15.6172 3.02809 15.6456C2.95975 15.6739 2.88649 15.6885 2.8125 15.6885C2.73851 15.6885 2.66525 15.6739 2.59691 15.6456C2.52857 15.6172 2.4665 15.5756 2.41425 15.5233L1.28925 14.3983C1.18363 14.2926 1.12429 14.1494 1.12429 14C1.12429 13.8506 1.18363 13.7074 1.28925 13.6017C1.39487 13.4961 1.53813 13.4368 1.6875 13.4368C1.83687 13.4368 1.98013 13.4961 2.08575 13.6017L2.8125 14.3296L4.66425 12.4767C4.76987 12.3711 4.91313 12.3118 5.0625 12.3118C5.21187 12.3118 5.35513 12.3711 5.46075 12.4767C5.56637 12.5824 5.62571 12.7256 5.62571 12.875C5.62571 13.0244 5.56637 13.1676 5.46075 13.2733L3.21075 15.5233ZM7.875 12.3125C7.875 12.1633 7.93426 12.0202 8.03975 11.9148C8.14524 11.8093 8.28832 11.75 8.4375 11.75H16.3125C16.4617 11.75 16.6048 11.8093 16.7102 11.9148C16.8157 12.0202 16.875 12.1633 16.875 12.3125V13.4375C16.875 13.5867 16.8157 13.7298 16.7102 13.8352C16.6048 13.9407 16.4617 14 16.3125 14H8.4375C8.28832 14 8.14524 13.9407 8.03975 13.8352C7.93426 13.7298 7.875 13.5867 7.875 13.4375V12.3125ZM7.875 6.6875C7.875 6.53832 7.93426 6.39524 8.03975 6.28975C8.14524 6.18426 8.28832 6.125 8.4375 6.125H14.0625C14.2117 6.125 14.3548 6.18426 14.4602 6.28975C14.5657 6.39524 14.625 6.53832 14.625 6.6875C14.625 6.83668 14.5657 6.97976 14.4602 7.08525C14.3548 7.19074 14.2117 7.25 14.0625 7.25H8.4375C8.28832 7.25 8.14524 7.19074 8.03975 7.08525C7.93426 6.97976 7.875 6.83668 7.875 6.6875ZM7.875 15.6875C7.875 15.5383 7.93426 15.3952 8.03975 15.2898C8.14524 15.1843 8.28832 15.125 8.4375 15.125H14.0625C14.2117 15.125 14.3548 15.1843 14.4602 15.2898C14.5657 15.3952 14.625 15.5383 14.625 15.6875C14.625 15.8367 14.5657 15.9798 14.4602 16.0852C14.3548 16.1907 14.2117 16.25 14.0625 16.25H8.4375C8.28832 16.25 8.14524 16.1907 8.03975 16.0852C7.93426 15.9798 7.875 15.8367 7.875 15.6875Z" fill="white"/>
</g>
<defs>
<clipPath id="clip0_1_48">
<rect width="18" height="18" fill="white" transform="translate(0 0.5)"/>
</clipPath>
</defs>
</svg>
